# xmcd
#
# Track frame offsets:
#	150
#	10715
#	22917
#	33582
#	45227
#	54809
#	66743
#	77028
#	88183
#	100132
#	113479
#	123332
#	136383
#	148444
#	160191
#	170557
#	183046
#	193177
#	202274
#	212253
#	222023
#	233723
#	246404
#	257059
#	271287
#	281781
#	292215
#	302209
#	311293
#	321929
#	332322
#	344054
#
# Disc length: 4764 seconds
#
# Revision: 2
# Processed by: cddbd v1.5.2PL0 Copyright (c) Steve Scherf et al.
# Submitted via: audiograbber 1.83.01
#
DISCID=dd129a20
DTITLE=Various Artist - Tiny Topsy And Friends
DYEAR=1900
DGENRE=
TTITLE0=Tiny Topsy - After Marriage Blues
TTITLE1=Timy Topsy - Working On Me Baby
TTITLE2=Timy Topsy - Aw! Shucks Baby
TTITLE3=Timy Topsy - A Woman´S Instuition
TTITLE4=Timy Topsy - Miss Wou So
TTITLE5=Timy Topsy - Come On, Come On, Come On.
TTITLE6=Timy Topsy - Ring Around My Finger
TTITLE7=Timy Topsy - You Shocked Me
TTITLE8=Timy Topsy - Just A Little Bit
TTITLE9=Timy Topsy - Everybody Needs Some Loving
TTITLE10=Timy Topsy - Waterproof Eyes
TTITLE11=Timy Topsy - Western Rock´N´Roll
TTITLE12=Timy Topsy - Cha Cha Sue
TTITLE13=Big Maybelle - Whole Lotta Shakin´N Goin´On
TTITLE14=Joan Shaw - Hand Holdin´Baby
TTITLE15=Sherley Gunter - I Want Wou
TTITLE16=Mari Jones - Ribada Ba Doo
TTITLE17=Millie Vernon - Bloodshot Eyes
TTITLE18=Dolly Cooper - My Man
TTITLE19=Anie Laurie - Rockin´And Rollin´Again
TTITLE20=Jeanette Baker  - Crazy With Wou
TTITLE21=Big Maybelle - Mama(He Treats Your Daughter Mean)
TTITLE22=Kubda Giojubs - Tge Naguc Sibg
TTITLE23=Jatue Webster - Mama Dont Allow
TTITLE24=Mickie Champion - Bam A Lam
TTITLE25=Big Maybelle - Do Lord
TTITLE26=Marie Knight - I Thought I Told Wou Not To Tell Them
TTITLE27=Etta James - Every Night
TTITLE28=Marie Adams - A Fool In Love
TTITLE29=Lil Bryant - Ho Ho
TTITLE30=Rosetta Perry - Farewell Blues
TTITLE31=Rosetta Perry - Get Out And Go
EXTD=
EXTT0=
EXTT1=
EXTT2=
EXTT3=
EXTT4=
EXTT5=
EXTT6=
EXTT7=
EXTT8=
EXTT9=
EXTT10=
EXTT11=
EXTT12=
EXTT13=
EXTT14=
EXTT15=
EXTT16=
EXTT17=
EXTT18=
EXTT19=
EXTT20=
EXTT21=
EXTT22=
EXTT23=
EXTT24=
EXTT25=
EXTT26=
EXTT27=
EXTT28=
EXTT29=
EXTT30=
EXTT31=
PLAYORDER=
